<svg xmlns="http://www.w3.org/2000/svg" viewBox="0 0 400 400" fill="none">
  <rect width="400" height="400" fill="#F5F0EB"/>
  <defs>
    <pattern id="aop" x="0" y="0" width="30" height="30" patternUnits="userSpaceOnUse">
      <circle cx="15" cy="15" r="4" fill="#C5C0BB" opacity="0.4"/>
      <circle cx="0" cy="0" r="4" fill="#C5C0BB" opacity="0.4"/>
      <circle cx="30" cy="0" r="4" fill="#C5C0BB" opacity="0.4"/>
      <circle cx="0" cy="30" r="4" fill="#C5C0BB" opacity="0.4"/>
      <circle cx="30" cy="30" r="4" fill="#C5C0BB" opacity="0.4"/>
    </pattern>
  </defs>
  <g transform="translate(90, 40)">
    <path d="M110 0 C85 0 65 10 50 30 L15 75 L55 85 L60 60 L45 300 H175 L160 60 L165 85 L205 75 L170 30 C155 10 135 0 110 0Z" fill="url(#aop)" stroke="#C5C0BB" stroke-width="2"/>
    <path d="M110 0 C85 0 65 10 50 30 L15 75 L55 85 L60 60 L45 300 H175 L160 60 L165 85 L205 75 L170 30 C155 10 135 0 110 0Z" fill="#E8E3DE" fill-opacity="0.3"/>
    <ellipse cx="110" cy="8" rx="16" ry="8" fill="#F5F0EB" stroke="#C5C0BB" stroke-width="1.5"/>
  </g>
</svg>