<svg xmlns="http://www.w3.org/2000/svg" viewBox="0 0 400 400" fill="none">
  <rect width="400" height="400" fill="#F5F0EB"/>
  <g transform="translate(115, 40)">
    <path d="M85 0 C60 0 40 10 30 30 L10 70 L35 75 L40 55 L30 300 H140 L130 55 L135 75 L160 70 L140 30 C130 10 110 0 85 0Z" fill="#E8E3DE" stroke="#C5C0BB" stroke-width="2"/>
    <path d="M85 0 C60 0 40 10 30 30 L40 55 L55 25 C65 15 75 10 85 10 C95 10 105 15 115 25 L130 55 L140 30 C130 10 110 0 85 0Z" fill="#DDD8D3" stroke="#C5C0BB" stroke-width="2"/>
    <ellipse cx="85" cy="8" rx="12" ry="8" fill="#F5F0EB" stroke="#C5C0BB" stroke-width="1.5"/>
  </g>
</svg>